<mxfile host="app.diagrams.net" modified="2023-11-28T22:29:26.126Z" agent="Mozilla/5.0 (Windows NT 10.0; Win64; x64) AppleWebKit/537.36 (KHTML, like Gecko) Chrome/119.0.0.0 Safari/537.36" etag="DJ-n0e9lSvlZGEs6dS9r" version="22.1.4" type="device">
  <diagram id="C5RBs43oDa-KdzZeNtuy" name="Page-1">
    <mxGraphModel dx="11660" dy="2110" grid="1" gridSize="10" guides="1" tooltips="1" connect="1" arrows="1" fold="1" page="1" pageScale="1" pageWidth="5000" pageHeight="5000" math="0" shadow="0">
      <root>
        <mxCell id="WIyWlLk6GJQsqaUBKTNV-0" />
        <mxCell id="WIyWlLk6GJQsqaUBKTNV-1" parent="WIyWlLk6GJQsqaUBKTNV-0" />
        <mxCell id="zkfFHV4jXpPFQw0GAbJ--0" value="Campo" style="swimlane;fontStyle=2;align=center;verticalAlign=top;childLayout=stackLayout;horizontal=1;startSize=26;horizontalStack=0;resizeParent=1;resizeLast=0;collapsible=1;marginBottom=0;rounded=0;shadow=0;strokeWidth=1;" parent="WIyWlLk6GJQsqaUBKTNV-1" vertex="1">
          <mxGeometry x="-3490" y="160" width="540" height="398" as="geometry">
            <mxRectangle x="230" y="140" width="160" height="26" as="alternateBounds" />
          </mxGeometry>
        </mxCell>
        <mxCell id="zkfFHV4jXpPFQw0GAbJ--1" value="+ SCREEN_WIDTH: int  " style="text;align=left;verticalAlign=top;spacingLeft=4;spacingRight=4;overflow=hidden;rotatable=0;points=[[0,0.5],[1,0.5]];portConstraint=eastwest;" parent="zkfFHV4jXpPFQw0GAbJ--0" vertex="1">
          <mxGeometry y="26" width="540" height="26" as="geometry" />
        </mxCell>
        <mxCell id="zkfFHV4jXpPFQw0GAbJ--2" value="+ SCREEN_HEIGHT: int " style="text;align=left;verticalAlign=top;spacingLeft=4;spacingRight=4;overflow=hidden;rotatable=0;points=[[0,0.5],[1,0.5]];portConstraint=eastwest;rounded=0;shadow=0;html=0;" parent="zkfFHV4jXpPFQw0GAbJ--0" vertex="1">
          <mxGeometry y="52" width="540" height="26" as="geometry" />
        </mxCell>
        <mxCell id="zkfFHV4jXpPFQw0GAbJ--3" value="+ CELL_SIZE: int   " style="text;align=left;verticalAlign=top;spacingLeft=4;spacingRight=4;overflow=hidden;rotatable=0;points=[[0,0.5],[1,0.5]];portConstraint=eastwest;rounded=0;shadow=0;html=0;" parent="zkfFHV4jXpPFQw0GAbJ--0" vertex="1">
          <mxGeometry y="78" width="540" height="26" as="geometry" />
        </mxCell>
        <mxCell id="xILVvPnAIR7aX2m-eXU3-0" value="+ gWindow: SDL_Window*" style="text;align=left;verticalAlign=top;spacingLeft=4;spacingRight=4;overflow=hidden;rotatable=0;points=[[0,0.5],[1,0.5]];portConstraint=eastwest;rounded=0;shadow=0;html=0;" parent="zkfFHV4jXpPFQw0GAbJ--0" vertex="1">
          <mxGeometry y="104" width="540" height="26" as="geometry" />
        </mxCell>
        <mxCell id="xILVvPnAIR7aX2m-eXU3-1" value="+ gRenderer: SDL_Renderer*" style="text;align=left;verticalAlign=top;spacingLeft=4;spacingRight=4;overflow=hidden;rotatable=0;points=[[0,0.5],[1,0.5]];portConstraint=eastwest;rounded=0;shadow=0;html=0;" parent="zkfFHV4jXpPFQw0GAbJ--0" vertex="1">
          <mxGeometry y="130" width="540" height="26" as="geometry" />
        </mxCell>
        <mxCell id="zkfFHV4jXpPFQw0GAbJ--4" value="" style="line;html=1;strokeWidth=1;align=left;verticalAlign=middle;spacingTop=-1;spacingLeft=3;spacingRight=3;rotatable=0;labelPosition=right;points=[];portConstraint=eastwest;" parent="zkfFHV4jXpPFQw0GAbJ--0" vertex="1">
          <mxGeometry y="156" width="540" height="8" as="geometry" />
        </mxCell>
        <mxCell id="zkfFHV4jXpPFQw0GAbJ--5" value="+ closeSDL(): void   " style="text;align=left;verticalAlign=top;spacingLeft=4;spacingRight=4;overflow=hidden;rotatable=0;points=[[0,0.5],[1,0.5]];portConstraint=eastwest;" parent="zkfFHV4jXpPFQw0GAbJ--0" vertex="1">
          <mxGeometry y="164" width="540" height="26" as="geometry" />
        </mxCell>
        <mxCell id="xILVvPnAIR7aX2m-eXU3-2" value="+ initSDL(): bool " style="text;align=left;verticalAlign=top;spacingLeft=4;spacingRight=4;overflow=hidden;rotatable=0;points=[[0,0.5],[1,0.5]];portConstraint=eastwest;" parent="zkfFHV4jXpPFQw0GAbJ--0" vertex="1">
          <mxGeometry y="190" width="540" height="26" as="geometry" />
        </mxCell>
        <mxCell id="xILVvPnAIR7aX2m-eXU3-3" value="+ Campo()   " style="text;align=left;verticalAlign=top;spacingLeft=4;spacingRight=4;overflow=hidden;rotatable=0;points=[[0,0.5],[1,0.5]];portConstraint=eastwest;" parent="zkfFHV4jXpPFQw0GAbJ--0" vertex="1">
          <mxGeometry y="216" width="540" height="26" as="geometry" />
        </mxCell>
        <mxCell id="xILVvPnAIR7aX2m-eXU3-4" value="+ coloraFinestraDiNero(renderer: SDL_Renderer*): void" style="text;align=left;verticalAlign=top;spacingLeft=4;spacingRight=4;overflow=hidden;rotatable=0;points=[[0,0.5],[1,0.5]];portConstraint=eastwest;" parent="zkfFHV4jXpPFQw0GAbJ--0" vertex="1">
          <mxGeometry y="242" width="540" height="26" as="geometry" />
        </mxCell>
        <mxCell id="xILVvPnAIR7aX2m-eXU3-5" value="+ coloraFinestraDiBianco(renderer: SDL_Renderer*): void" style="text;align=left;verticalAlign=top;spacingLeft=4;spacingRight=4;overflow=hidden;rotatable=0;points=[[0,0.5],[1,0.5]];portConstraint=eastwest;" parent="zkfFHV4jXpPFQw0GAbJ--0" vertex="1">
          <mxGeometry y="268" width="540" height="26" as="geometry" />
        </mxCell>
        <mxCell id="xILVvPnAIR7aX2m-eXU3-6" value="+ visualizzaCampo(mareTexture: SDL_Texture*, navi: std::vector&lt;Nave&gt;&amp;): void" style="text;align=left;verticalAlign=top;spacingLeft=4;spacingRight=4;overflow=hidden;rotatable=0;points=[[0,0.5],[1,0.5]];portConstraint=eastwest;" parent="zkfFHV4jXpPFQw0GAbJ--0" vertex="1">
          <mxGeometry y="294" width="540" height="26" as="geometry" />
        </mxCell>
        <mxCell id="xILVvPnAIR7aX2m-eXU3-7" value="+ disegnaGriglia(CELL_SIZE: int, gRenderer: SDL_Renderer*, mareTexture: SDL_Texture*): void" style="text;align=left;verticalAlign=top;spacingLeft=4;spacingRight=4;overflow=hidden;rotatable=0;points=[[0,0.5],[1,0.5]];portConstraint=eastwest;" parent="zkfFHV4jXpPFQw0GAbJ--0" vertex="1">
          <mxGeometry y="320" width="540" height="26" as="geometry" />
        </mxCell>
        <mxCell id="xILVvPnAIR7aX2m-eXU3-8" value="+ impostaSfondo(gRenderer: SDL_Renderer*): void" style="text;align=left;verticalAlign=top;spacingLeft=4;spacingRight=4;overflow=hidden;rotatable=0;points=[[0,0.5],[1,0.5]];portConstraint=eastwest;" parent="zkfFHV4jXpPFQw0GAbJ--0" vertex="1">
          <mxGeometry y="346" width="540" height="26" as="geometry" />
        </mxCell>
        <mxCell id="xILVvPnAIR7aX2m-eXU3-9" value="+ cambiaTextureCella(posizione: const std::string&amp;, mareFuocoTexture: SDL_Texture*): void" style="text;align=left;verticalAlign=top;spacingLeft=4;spacingRight=4;overflow=hidden;rotatable=0;points=[[0,0.5],[1,0.5]];portConstraint=eastwest;" parent="zkfFHV4jXpPFQw0GAbJ--0" vertex="1">
          <mxGeometry y="372" width="540" height="26" as="geometry" />
        </mxCell>
        <mxCell id="xILVvPnAIR7aX2m-eXU3-10" value="Texture" style="swimlane;fontStyle=2;align=center;verticalAlign=top;childLayout=stackLayout;horizontal=1;startSize=26;horizontalStack=0;resizeParent=1;resizeLast=0;collapsible=1;marginBottom=0;rounded=0;shadow=0;strokeWidth=1;" parent="WIyWlLk6GJQsqaUBKTNV-1" vertex="1">
          <mxGeometry x="-1820" y="490" width="540" height="250" as="geometry">
            <mxRectangle x="230" y="140" width="160" height="26" as="alternateBounds" />
          </mxGeometry>
        </mxCell>
        <mxCell id="xILVvPnAIR7aX2m-eXU3-11" value="- naveTexture: std::vector&lt;SDL_Texture*&gt;" style="text;align=left;verticalAlign=top;spacingLeft=4;spacingRight=4;overflow=hidden;rotatable=0;points=[[0,0.5],[1,0.5]];portConstraint=eastwest;" parent="xILVvPnAIR7aX2m-eXU3-10" vertex="1">
          <mxGeometry y="26" width="540" height="26" as="geometry" />
        </mxCell>
        <mxCell id="xILVvPnAIR7aX2m-eXU3-16" value="" style="line;html=1;strokeWidth=1;align=left;verticalAlign=middle;spacingTop=-1;spacingLeft=3;spacingRight=3;rotatable=0;labelPosition=right;points=[];portConstraint=eastwest;" parent="xILVvPnAIR7aX2m-eXU3-10" vertex="1">
          <mxGeometry y="52" width="540" height="8" as="geometry" />
        </mxCell>
        <mxCell id="xILVvPnAIR7aX2m-eXU3-17" value="+ Texture(gRenderer: SDL_Renderer*): void" style="text;align=left;verticalAlign=top;spacingLeft=4;spacingRight=4;overflow=hidden;rotatable=0;points=[[0,0.5],[1,0.5]];portConstraint=eastwest;" parent="xILVvPnAIR7aX2m-eXU3-10" vertex="1">
          <mxGeometry y="60" width="540" height="26" as="geometry" />
        </mxCell>
        <mxCell id="xILVvPnAIR7aX2m-eXU3-18" value="+ riempiVettoreTextureNavi(gRenderer: SDL_Renderer*): void" style="text;align=left;verticalAlign=top;spacingLeft=4;spacingRight=4;overflow=hidden;rotatable=0;points=[[0,0.5],[1,0.5]];portConstraint=eastwest;" parent="xILVvPnAIR7aX2m-eXU3-10" vertex="1">
          <mxGeometry y="86" width="540" height="26" as="geometry" />
        </mxCell>
        <mxCell id="xILVvPnAIR7aX2m-eXU3-19" value="+ caricaTextureDaFile(renderer: SDL_Renderer*, filename: const std::string&amp;): SDL_Texture*" style="text;align=left;verticalAlign=top;spacingLeft=4;spacingRight=4;overflow=hidden;rotatable=0;points=[[0,0.5],[1,0.5]];portConstraint=eastwest;" parent="xILVvPnAIR7aX2m-eXU3-10" vertex="1">
          <mxGeometry y="112" width="540" height="26" as="geometry" />
        </mxCell>
        <mxCell id="xILVvPnAIR7aX2m-eXU3-20" value="+ disegnaTextureNave(i: int, nave: Nave*, x_: int, y_: int, gRenderer: SDL_Renderer*): void" style="text;align=left;verticalAlign=top;spacingLeft=4;spacingRight=4;overflow=hidden;rotatable=0;points=[[0,0.5],[1,0.5]];portConstraint=eastwest;" parent="xILVvPnAIR7aX2m-eXU3-10" vertex="1">
          <mxGeometry y="138" width="540" height="26" as="geometry" />
        </mxCell>
        <mxCell id="xILVvPnAIR7aX2m-eXU3-21" value="+ CaricaTextureMare(path: const char*, gRenderer: SDL_Renderer*): SDL_Texture*" style="text;align=left;verticalAlign=top;spacingLeft=4;spacingRight=4;overflow=hidden;rotatable=0;points=[[0,0.5],[1,0.5]];portConstraint=eastwest;" parent="xILVvPnAIR7aX2m-eXU3-10" vertex="1">
          <mxGeometry y="164" width="540" height="26" as="geometry" />
        </mxCell>
        <mxCell id="xILVvPnAIR7aX2m-eXU3-22" value="+ GetTextureVettore(i: int): SDL_Texture*" style="text;align=left;verticalAlign=top;spacingLeft=4;spacingRight=4;overflow=hidden;rotatable=0;points=[[0,0.5],[1,0.5]];portConstraint=eastwest;" parent="xILVvPnAIR7aX2m-eXU3-10" vertex="1">
          <mxGeometry y="190" width="540" height="26" as="geometry" />
        </mxCell>
        <mxCell id="xILVvPnAIR7aX2m-eXU3-23" value="+ disegnaVettoreTexture(i: int, navi: std::vector&lt;Nave&gt;): void" style="text;align=left;verticalAlign=top;spacingLeft=4;spacingRight=4;overflow=hidden;rotatable=0;points=[[0,0.5],[1,0.5]];portConstraint=eastwest;" parent="xILVvPnAIR7aX2m-eXU3-10" vertex="1">
          <mxGeometry y="216" width="540" height="26" as="geometry" />
        </mxCell>
        <mxCell id="xILVvPnAIR7aX2m-eXU3-26" value="ClientServerComunicazione" style="swimlane;fontStyle=2;align=center;verticalAlign=top;childLayout=stackLayout;horizontal=1;startSize=26;horizontalStack=0;resizeParent=1;resizeLast=0;collapsible=1;marginBottom=0;rounded=0;shadow=0;strokeWidth=1;" parent="WIyWlLk6GJQsqaUBKTNV-1" vertex="1">
          <mxGeometry x="-4780" y="624" width="530" height="216" as="geometry">
            <mxRectangle x="230" y="140" width="160" height="26" as="alternateBounds" />
          </mxGeometry>
        </mxCell>
        <mxCell id="xILVvPnAIR7aX2m-eXU3-27" value="+ nomeGiocatore: std::string" style="text;align=left;verticalAlign=top;spacingLeft=4;spacingRight=4;overflow=hidden;rotatable=0;points=[[0,0.5],[1,0.5]];portConstraint=eastwest;" parent="xILVvPnAIR7aX2m-eXU3-26" vertex="1">
          <mxGeometry y="26" width="530" height="26" as="geometry" />
        </mxCell>
        <mxCell id="xILVvPnAIR7aX2m-eXU3-32" value="" style="line;html=1;strokeWidth=1;align=left;verticalAlign=middle;spacingTop=-1;spacingLeft=3;spacingRight=3;rotatable=0;labelPosition=right;points=[];portConstraint=eastwest;" parent="xILVvPnAIR7aX2m-eXU3-26" vertex="1">
          <mxGeometry y="52" width="530" height="8" as="geometry" />
        </mxCell>
        <mxCell id="xILVvPnAIR7aX2m-eXU3-33" value="+ receiveString(socket: int): std::string" style="text;align=left;verticalAlign=top;spacingLeft=4;spacingRight=4;overflow=hidden;rotatable=0;points=[[0,0.5],[1,0.5]];portConstraint=eastwest;" parent="xILVvPnAIR7aX2m-eXU3-26" vertex="1">
          <mxGeometry y="60" width="530" height="26" as="geometry" />
        </mxCell>
        <mxCell id="xILVvPnAIR7aX2m-eXU3-34" value="+ sendString(socket: int, message: const std::string&amp;): bool" style="text;align=left;verticalAlign=top;spacingLeft=4;spacingRight=4;overflow=hidden;rotatable=0;points=[[0,0.5],[1,0.5]];portConstraint=eastwest;" parent="xILVvPnAIR7aX2m-eXU3-26" vertex="1">
          <mxGeometry y="86" width="530" height="26" as="geometry" />
        </mxCell>
        <mxCell id="xILVvPnAIR7aX2m-eXU3-35" value="+ connectToServer(): SOCKET" style="text;align=left;verticalAlign=top;spacingLeft=4;spacingRight=4;overflow=hidden;rotatable=0;points=[[0,0.5],[1,0.5]];portConstraint=eastwest;" parent="xILVvPnAIR7aX2m-eXU3-26" vertex="1">
          <mxGeometry y="112" width="530" height="26" as="geometry" />
        </mxCell>
        <mxCell id="xILVvPnAIR7aX2m-eXU3-67" value="+ closeConnection(clientSocket: SOCKET): void" style="text;align=left;verticalAlign=top;spacingLeft=4;spacingRight=4;overflow=hidden;rotatable=0;points=[[0,0.5],[1,0.5]];portConstraint=eastwest;" parent="xILVvPnAIR7aX2m-eXU3-26" vertex="1">
          <mxGeometry y="138" width="530" height="26" as="geometry" />
        </mxCell>
        <mxCell id="xILVvPnAIR7aX2m-eXU3-68" value="+ sendAndReceiveString(clientSocket: SOCKET, message: const std::string&amp;): std::string" style="text;align=left;verticalAlign=top;spacingLeft=4;spacingRight=4;overflow=hidden;rotatable=0;points=[[0,0.5],[1,0.5]];portConstraint=eastwest;" parent="xILVvPnAIR7aX2m-eXU3-26" vertex="1">
          <mxGeometry y="164" width="530" height="26" as="geometry" />
        </mxCell>
        <mxCell id="xILVvPnAIR7aX2m-eXU3-69" value="+ stringaPosizione(navi: std::vector&lt;Nave&gt;, i: int, nave: Nave, coordinate: std::string): std::string" style="text;align=left;verticalAlign=top;spacingLeft=4;spacingRight=4;overflow=hidden;rotatable=0;points=[[0,0.5],[1,0.5]];portConstraint=eastwest;" parent="xILVvPnAIR7aX2m-eXU3-26" vertex="1">
          <mxGeometry y="190" width="530" height="26" as="geometry" />
        </mxCell>
        <mxCell id="xILVvPnAIR7aX2m-eXU3-42" value="InterazioniUtente" style="swimlane;fontStyle=2;align=center;verticalAlign=top;childLayout=stackLayout;horizontal=1;startSize=26;horizontalStack=0;resizeParent=1;resizeLast=0;collapsible=1;marginBottom=0;rounded=0;shadow=0;strokeWidth=1;" parent="WIyWlLk6GJQsqaUBKTNV-1" vertex="1">
          <mxGeometry x="-2270" y="1020" width="710" height="216" as="geometry">
            <mxRectangle x="230" y="140" width="160" height="26" as="alternateBounds" />
          </mxGeometry>
        </mxCell>
        <mxCell id="xILVvPnAIR7aX2m-eXU3-44" value="" style="line;html=1;strokeWidth=1;align=left;verticalAlign=middle;spacingTop=-1;spacingLeft=3;spacingRight=3;rotatable=0;labelPosition=right;points=[];portConstraint=eastwest;" parent="xILVvPnAIR7aX2m-eXU3-42" vertex="1">
          <mxGeometry y="26" width="710" height="8" as="geometry" />
        </mxCell>
        <mxCell id="xILVvPnAIR7aX2m-eXU3-45" value="+ gestisciNave(nave: Nave*, mareTexture: SDL_Texture*, navi: std::vector&lt;Nave&gt;&amp;, i: int): std::string" style="text;align=left;verticalAlign=top;spacingLeft=4;spacingRight=4;overflow=hidden;rotatable=0;points=[[0,0.5],[1,0.5]];portConstraint=eastwest;" parent="xILVvPnAIR7aX2m-eXU3-42" vertex="1">
          <mxGeometry y="34" width="710" height="26" as="geometry" />
        </mxCell>
        <mxCell id="xILVvPnAIR7aX2m-eXU3-46" value="+ ottieniCoordinateNave(x: int, y: int): std::string" style="text;align=left;verticalAlign=top;spacingLeft=4;spacingRight=4;overflow=hidden;rotatable=0;points=[[0,0.5],[1,0.5]];portConstraint=eastwest;" parent="xILVvPnAIR7aX2m-eXU3-42" vertex="1">
          <mxGeometry y="60" width="710" height="26" as="geometry" />
        </mxCell>
        <mxCell id="xILVvPnAIR7aX2m-eXU3-47" value="+ gestisciEventi(evento: SDL_Event&amp;, staPosizionandoNave: bool&amp;, esciDaNave: bool&amp;, x_: int&amp;, y_: int&amp;, nave: Nave*): void" style="text;align=left;verticalAlign=top;spacingLeft=4;spacingRight=4;overflow=hidden;rotatable=0;points=[[0,0.5],[1,0.5]];portConstraint=eastwest;" parent="xILVvPnAIR7aX2m-eXU3-42" vertex="1">
          <mxGeometry y="86" width="710" height="26" as="geometry" />
        </mxCell>
        <mxCell id="xILVvPnAIR7aX2m-eXU3-49" value="+ LeggiTastiera(renderer: SDL_Renderer*, font: TTF_Font*): std::string" style="text;align=left;verticalAlign=top;spacingLeft=4;spacingRight=4;overflow=hidden;rotatable=0;points=[[0,0.5],[1,0.5]];portConstraint=eastwest;" parent="xILVvPnAIR7aX2m-eXU3-42" vertex="1">
          <mxGeometry y="112" width="710" height="26" as="geometry" />
        </mxCell>
        <mxCell id="xILVvPnAIR7aX2m-eXU3-50" value="+ controlloClickBottone(x: int, x1: int, y: int, y1: int, var: int, x_: int, x1_: int, y_: int, y1_: int, var_: int): int" style="text;align=left;verticalAlign=top;spacingLeft=4;spacingRight=4;overflow=hidden;rotatable=0;points=[[0,0.5],[1,0.5]];portConstraint=eastwest;" parent="xILVvPnAIR7aX2m-eXU3-42" vertex="1">
          <mxGeometry y="138" width="710" height="26" as="geometry" />
        </mxCell>
        <mxCell id="xILVvPnAIR7aX2m-eXU3-51" value="+ controlloClickBottone(x: int, x1: int, y: int, y1: int, var: int): int" style="text;align=left;verticalAlign=top;spacingLeft=4;spacingRight=4;overflow=hidden;rotatable=0;points=[[0,0.5],[1,0.5]];portConstraint=eastwest;" parent="xILVvPnAIR7aX2m-eXU3-42" vertex="1">
          <mxGeometry y="164" width="710" height="26" as="geometry" />
        </mxCell>
        <mxCell id="xILVvPnAIR7aX2m-eXU3-48" value="+ renderText(renderer: SDL_Renderer*, font: TTF_Font*, text: const std::string&amp;, x: int, y: int): void" style="text;align=left;verticalAlign=top;spacingLeft=4;spacingRight=4;overflow=hidden;rotatable=0;points=[[0,0.5],[1,0.5]];portConstraint=eastwest;" parent="xILVvPnAIR7aX2m-eXU3-42" vertex="1">
          <mxGeometry y="190" width="710" height="26" as="geometry" />
        </mxCell>
        <mxCell id="xILVvPnAIR7aX2m-eXU3-52" value="SchermataIniziale" style="swimlane;fontStyle=2;align=center;verticalAlign=top;childLayout=stackLayout;horizontal=1;startSize=26;horizontalStack=0;resizeParent=1;resizeLast=0;collapsible=1;marginBottom=0;rounded=0;shadow=0;strokeWidth=1;" parent="WIyWlLk6GJQsqaUBKTNV-1" vertex="1">
          <mxGeometry x="-3740" y="970" width="170" height="80" as="geometry">
            <mxRectangle x="230" y="140" width="160" height="26" as="alternateBounds" />
          </mxGeometry>
        </mxCell>
        <mxCell id="xILVvPnAIR7aX2m-eXU3-53" value="" style="line;html=1;strokeWidth=1;align=left;verticalAlign=middle;spacingTop=-1;spacingLeft=3;spacingRight=3;rotatable=0;labelPosition=right;points=[];portConstraint=eastwest;" parent="xILVvPnAIR7aX2m-eXU3-52" vertex="1">
          <mxGeometry y="26" width="170" height="8" as="geometry" />
        </mxCell>
        <mxCell id="xILVvPnAIR7aX2m-eXU3-54" value="+ dialogoEnome(): void" style="text;align=left;verticalAlign=top;spacingLeft=4;spacingRight=4;overflow=hidden;rotatable=0;points=[[0,0.5],[1,0.5]];portConstraint=eastwest;" parent="xILVvPnAIR7aX2m-eXU3-52" vertex="1">
          <mxGeometry y="34" width="170" height="26" as="geometry" />
        </mxCell>
        <mxCell id="xILVvPnAIR7aX2m-eXU3-61" value="NaviVettore" style="swimlane;fontStyle=2;align=center;verticalAlign=top;childLayout=stackLayout;horizontal=1;startSize=26;horizontalStack=0;resizeParent=1;resizeLast=0;collapsible=1;marginBottom=0;rounded=0;shadow=0;strokeWidth=1;" parent="WIyWlLk6GJQsqaUBKTNV-1" vertex="1">
          <mxGeometry x="-4490" y="950" width="480" height="150" as="geometry">
            <mxRectangle x="230" y="140" width="160" height="26" as="alternateBounds" />
          </mxGeometry>
        </mxCell>
        <mxCell id="xILVvPnAIR7aX2m-eXU3-62" value="- vettoreTestoNave: std::vector&lt;std::string&gt;" style="text;align=left;verticalAlign=top;spacingLeft=4;spacingRight=4;overflow=hidden;rotatable=0;points=[[0,0.5],[1,0.5]];portConstraint=eastwest;" parent="xILVvPnAIR7aX2m-eXU3-61" vertex="1">
          <mxGeometry y="26" width="480" height="26" as="geometry" />
        </mxCell>
        <mxCell id="xILVvPnAIR7aX2m-eXU3-63" value="" style="line;html=1;strokeWidth=1;align=left;verticalAlign=middle;spacingTop=-1;spacingLeft=3;spacingRight=3;rotatable=0;labelPosition=right;points=[];portConstraint=eastwest;" parent="xILVvPnAIR7aX2m-eXU3-61" vertex="1">
          <mxGeometry y="52" width="480" height="8" as="geometry" />
        </mxCell>
        <mxCell id="xILVvPnAIR7aX2m-eXU3-64" value="+ riempiVettoreTestoNave(vett: std::vector&lt;std::string&gt;&amp;): void" style="text;align=left;verticalAlign=top;spacingLeft=4;spacingRight=4;overflow=hidden;rotatable=0;points=[[0,0.5],[1,0.5]];portConstraint=eastwest;" parent="xILVvPnAIR7aX2m-eXU3-61" vertex="1">
          <mxGeometry y="60" width="480" height="26" as="geometry" />
        </mxCell>
        <mxCell id="xILVvPnAIR7aX2m-eXU3-65" value="+ riempiVettoreNaviTemporanee(navi: std::vector&lt;Nave&gt;): void" style="text;align=left;verticalAlign=top;spacingLeft=4;spacingRight=4;overflow=hidden;rotatable=0;points=[[0,0.5],[1,0.5]];portConstraint=eastwest;" parent="xILVvPnAIR7aX2m-eXU3-61" vertex="1">
          <mxGeometry y="86" width="480" height="26" as="geometry" />
        </mxCell>
        <mxCell id="xILVvPnAIR7aX2m-eXU3-66" value="+ visualizzaVettore(navi: std::vector&lt;Nave&gt;&amp;, gRenderer: SDL_Renderer*): void" style="text;align=left;verticalAlign=top;spacingLeft=4;spacingRight=4;overflow=hidden;rotatable=0;points=[[0,0.5],[1,0.5]];portConstraint=eastwest;" parent="xILVvPnAIR7aX2m-eXU3-61" vertex="1">
          <mxGeometry y="112" width="480" height="26" as="geometry" />
        </mxCell>
        <mxCell id="xILVvPnAIR7aX2m-eXU3-70" value="CampoBattaglia" style="swimlane;fontStyle=2;align=center;verticalAlign=top;childLayout=stackLayout;horizontal=1;startSize=26;horizontalStack=0;resizeParent=1;resizeLast=0;collapsible=1;marginBottom=0;rounded=0;shadow=0;strokeWidth=1;" parent="WIyWlLk6GJQsqaUBKTNV-1" vertex="1">
          <mxGeometry x="-4170" y="160" width="440" height="300" as="geometry">
            <mxRectangle x="230" y="140" width="160" height="26" as="alternateBounds" />
          </mxGeometry>
        </mxCell>
        <mxCell id="xILVvPnAIR7aX2m-eXU3-71" value="+ SCREEN_WIDTH: int " style="text;align=left;verticalAlign=top;spacingLeft=4;spacingRight=4;overflow=hidden;rotatable=0;points=[[0,0.5],[1,0.5]];portConstraint=eastwest;" parent="xILVvPnAIR7aX2m-eXU3-70" vertex="1">
          <mxGeometry y="26" width="440" height="26" as="geometry" />
        </mxCell>
        <mxCell id="xILVvPnAIR7aX2m-eXU3-79" value="+ SCREEN_HEIGHT: int  " style="text;align=left;verticalAlign=top;spacingLeft=4;spacingRight=4;overflow=hidden;rotatable=0;points=[[0,0.5],[1,0.5]];portConstraint=eastwest;" parent="xILVvPnAIR7aX2m-eXU3-70" vertex="1">
          <mxGeometry y="52" width="440" height="26" as="geometry" />
        </mxCell>
        <mxCell id="xILVvPnAIR7aX2m-eXU3-80" value="+ CELL_SIZE: int" style="text;align=left;verticalAlign=top;spacingLeft=4;spacingRight=4;overflow=hidden;rotatable=0;points=[[0,0.5],[1,0.5]];portConstraint=eastwest;" parent="xILVvPnAIR7aX2m-eXU3-70" vertex="1">
          <mxGeometry y="78" width="440" height="26" as="geometry" />
        </mxCell>
        <mxCell id="xILVvPnAIR7aX2m-eXU3-81" value="+ GRID_OFFSET_X: int " style="text;align=left;verticalAlign=top;spacingLeft=4;spacingRight=4;overflow=hidden;rotatable=0;points=[[0,0.5],[1,0.5]];portConstraint=eastwest;" parent="xILVvPnAIR7aX2m-eXU3-70" vertex="1">
          <mxGeometry y="104" width="440" height="26" as="geometry" />
        </mxCell>
        <mxCell id="xILVvPnAIR7aX2m-eXU3-82" value="+ GRID_OFFSET_Y: int " style="text;align=left;verticalAlign=top;spacingLeft=4;spacingRight=4;overflow=hidden;rotatable=0;points=[[0,0.5],[1,0.5]];portConstraint=eastwest;" parent="xILVvPnAIR7aX2m-eXU3-70" vertex="1">
          <mxGeometry y="130" width="440" height="26" as="geometry" />
        </mxCell>
        <mxCell id="xILVvPnAIR7aX2m-eXU3-83" value="+ GRID_ROWS: int   " style="text;align=left;verticalAlign=top;spacingLeft=4;spacingRight=4;overflow=hidden;rotatable=0;points=[[0,0.5],[1,0.5]];portConstraint=eastwest;" parent="xILVvPnAIR7aX2m-eXU3-70" vertex="1">
          <mxGeometry y="156" width="440" height="26" as="geometry" />
        </mxCell>
        <mxCell id="xILVvPnAIR7aX2m-eXU3-84" value="+ GRID_COLS: int" style="text;align=left;verticalAlign=top;spacingLeft=4;spacingRight=4;overflow=hidden;rotatable=0;points=[[0,0.5],[1,0.5]];portConstraint=eastwest;" parent="xILVvPnAIR7aX2m-eXU3-70" vertex="1">
          <mxGeometry y="182" width="440" height="26" as="geometry" />
        </mxCell>
        <mxCell id="xILVvPnAIR7aX2m-eXU3-72" value="" style="line;html=1;strokeWidth=1;align=left;verticalAlign=middle;spacingTop=-1;spacingLeft=3;spacingRight=3;rotatable=0;labelPosition=right;points=[];portConstraint=eastwest;" parent="xILVvPnAIR7aX2m-eXU3-70" vertex="1">
          <mxGeometry y="208" width="440" height="8" as="geometry" />
        </mxCell>
        <mxCell id="xILVvPnAIR7aX2m-eXU3-73" value="+ disegnaGriglia(gRenderer: SDL_Renderer*, mareTexture: SDL_Texture*): void" style="text;align=left;verticalAlign=top;spacingLeft=4;spacingRight=4;overflow=hidden;rotatable=0;points=[[0,0.5],[1,0.5]];portConstraint=eastwest;" parent="xILVvPnAIR7aX2m-eXU3-70" vertex="1">
          <mxGeometry y="216" width="440" height="26" as="geometry" />
        </mxCell>
        <mxCell id="xILVvPnAIR7aX2m-eXU3-74" value="+ gestisciInput(e: SDL_Event&amp;): bool" style="text;align=left;verticalAlign=top;spacingLeft=4;spacingRight=4;overflow=hidden;rotatable=0;points=[[0,0.5],[1,0.5]];portConstraint=eastwest;" parent="xILVvPnAIR7aX2m-eXU3-70" vertex="1">
          <mxGeometry y="242" width="440" height="26" as="geometry" />
        </mxCell>
        <mxCell id="xILVvPnAIR7aX2m-eXU3-75" value="+ ottieniCellaCliccata(e: SDL_Event&amp;): std::string" style="text;align=left;verticalAlign=top;spacingLeft=4;spacingRight=4;overflow=hidden;rotatable=0;points=[[0,0.5],[1,0.5]];portConstraint=eastwest;" parent="xILVvPnAIR7aX2m-eXU3-70" vertex="1">
          <mxGeometry y="268" width="440" height="26" as="geometry" />
        </mxCell>
        <mxCell id="xILVvPnAIR7aX2m-eXU3-85" value="DisegnaContenuti" style="swimlane;fontStyle=2;align=center;verticalAlign=top;childLayout=stackLayout;horizontal=1;startSize=26;horizontalStack=0;resizeParent=1;resizeLast=0;collapsible=1;marginBottom=0;rounded=0;shadow=0;strokeWidth=1;" parent="WIyWlLk6GJQsqaUBKTNV-1" vertex="1">
          <mxGeometry x="-3220" y="950" width="780" height="250" as="geometry">
            <mxRectangle x="230" y="140" width="160" height="26" as="alternateBounds" />
          </mxGeometry>
        </mxCell>
        <mxCell id="xILVvPnAIR7aX2m-eXU3-93" value="" style="line;html=1;strokeWidth=1;align=left;verticalAlign=middle;spacingTop=-1;spacingLeft=3;spacingRight=3;rotatable=0;labelPosition=right;points=[];portConstraint=eastwest;" parent="xILVvPnAIR7aX2m-eXU3-85" vertex="1">
          <mxGeometry y="26" width="780" height="8" as="geometry" />
        </mxCell>
        <mxCell id="xILVvPnAIR7aX2m-eXU3-94" value="+ scriviScritta(str: std::string, gRenderer: SDL_Renderer*, x: int, y: int, grandezza: int): void" style="text;align=left;verticalAlign=top;spacingLeft=4;spacingRight=4;overflow=hidden;rotatable=0;points=[[0,0.5],[1,0.5]];portConstraint=eastwest;" parent="xILVvPnAIR7aX2m-eXU3-85" vertex="1">
          <mxGeometry y="34" width="780" height="26" as="geometry" />
        </mxCell>
        <mxCell id="xILVvPnAIR7aX2m-eXU3-95" value="+ scriviScrittaPersonalizzata(str: std::string, gRenderer: SDL_Renderer*, x: int, y: int, grandezza: int, rosso: int, verde: int, blu: int): void" style="text;align=left;verticalAlign=top;spacingLeft=4;spacingRight=4;overflow=hidden;rotatable=0;points=[[0,0.5],[1,0.5]];portConstraint=eastwest;" parent="xILVvPnAIR7aX2m-eXU3-85" vertex="1">
          <mxGeometry y="60" width="780" height="26" as="geometry" />
        </mxCell>
        <mxCell id="xILVvPnAIR7aX2m-eXU3-96" value="+ disegnaBottone(gRenderer: SDL_Renderer*, percorso: std::string, x: int, y: int, lunghezza: int, larghezza: int): void" style="text;align=left;verticalAlign=top;spacingLeft=4;spacingRight=4;overflow=hidden;rotatable=0;points=[[0,0.5],[1,0.5]];portConstraint=eastwest;" parent="xILVvPnAIR7aX2m-eXU3-85" vertex="1">
          <mxGeometry y="86" width="780" height="26" as="geometry" />
        </mxCell>
        <mxCell id="xILVvPnAIR7aX2m-eXU3-99" value="+ disegnaSfondo(renderer: SDL_Renderer*, imagePath: const char*, gWindow: SDL_Window*): void" style="text;align=left;verticalAlign=top;spacingLeft=4;spacingRight=4;overflow=hidden;rotatable=0;points=[[0,0.5],[1,0.5]];portConstraint=eastwest;" parent="xILVvPnAIR7aX2m-eXU3-85" vertex="1">
          <mxGeometry y="112" width="780" height="26" as="geometry" />
        </mxCell>
        <mxCell id="xILVvPnAIR7aX2m-eXU3-100" value="+ scriviScrittaGradualmente(renderer: SDL_Renderer*, fontPath: const std::string&amp;, text: const std::string&amp;, x: int, y: int, delay: int): void" style="text;align=left;verticalAlign=top;spacingLeft=4;spacingRight=4;overflow=hidden;rotatable=0;points=[[0,0.5],[1,0.5]];portConstraint=eastwest;" parent="xILVvPnAIR7aX2m-eXU3-85" vertex="1">
          <mxGeometry y="138" width="780" height="26" as="geometry" />
        </mxCell>
        <mxCell id="xILVvPnAIR7aX2m-eXU3-101" value="+ rettangoloNero(renderer: SDL_Renderer*): void" style="text;align=left;verticalAlign=top;spacingLeft=4;spacingRight=4;overflow=hidden;rotatable=0;points=[[0,0.5],[1,0.5]];portConstraint=eastwest;" parent="xILVvPnAIR7aX2m-eXU3-85" vertex="1">
          <mxGeometry y="164" width="780" height="26" as="geometry" />
        </mxCell>
        <mxCell id="xILVvPnAIR7aX2m-eXU3-102" value="+ richiamoContenutiFuoco(mareTexture: SDL_Texture*, navi: std::vector&lt;Nave&gt;): void" style="text;align=left;verticalAlign=top;spacingLeft=4;spacingRight=4;overflow=hidden;rotatable=0;points=[[0,0.5],[1,0.5]];portConstraint=eastwest;" parent="xILVvPnAIR7aX2m-eXU3-85" vertex="1">
          <mxGeometry y="190" width="780" height="26" as="geometry" />
        </mxCell>
        <mxCell id="xILVvPnAIR7aX2m-eXU3-103" value="+ richiamoContenutiPosizionamentoNave(mareTexture: SDL_Texture*, navi: std::vector&lt;Nave&gt;, testiNave: std::vector&lt;std::string&gt;, i: int): void" style="text;align=left;verticalAlign=top;spacingLeft=4;spacingRight=4;overflow=hidden;rotatable=0;points=[[0,0.5],[1,0.5]];portConstraint=eastwest;" parent="xILVvPnAIR7aX2m-eXU3-85" vertex="1">
          <mxGeometry y="216" width="780" height="26" as="geometry" />
        </mxCell>
        <mxCell id="xILVvPnAIR7aX2m-eXU3-105" value="Use" style="endArrow=open;endSize=12;dashed=1;html=1;rounded=0;entryX=0.25;entryY=0;entryDx=0;entryDy=0;" parent="WIyWlLk6GJQsqaUBKTNV-1" edge="1" target="xILVvPnAIR7aX2m-eXU3-42">
          <mxGeometry width="160" relative="1" as="geometry">
            <mxPoint x="-4260" y="760" as="sourcePoint" />
            <mxPoint x="-1950" y="890" as="targetPoint" />
            <Array as="points">
              <mxPoint x="-2090" y="880" />
            </Array>
          </mxGeometry>
        </mxCell>
        <mxCell id="xILVvPnAIR7aX2m-eXU3-106" value="Use" style="endArrow=open;endSize=12;dashed=1;html=1;rounded=0;exitX=0.252;exitY=1.542;exitDx=0;exitDy=0;exitPerimeter=0;entryX=0.643;entryY=-0.005;entryDx=0;entryDy=0;entryPerimeter=0;" parent="WIyWlLk6GJQsqaUBKTNV-1" edge="1" target="xILVvPnAIR7aX2m-eXU3-61" source="xILVvPnAIR7aX2m-eXU3-9">
          <mxGeometry width="160" relative="1" as="geometry">
            <mxPoint x="-3710" y="590" as="sourcePoint" />
            <mxPoint x="-3550" y="590" as="targetPoint" />
          </mxGeometry>
        </mxCell>
        <mxCell id="xILVvPnAIR7aX2m-eXU3-107" value="Nave" style="swimlane;fontStyle=2;align=center;verticalAlign=top;childLayout=stackLayout;horizontal=1;startSize=26;horizontalStack=0;resizeParent=1;resizeLast=0;collapsible=1;marginBottom=0;rounded=0;shadow=0;strokeWidth=1;" parent="WIyWlLk6GJQsqaUBKTNV-1" vertex="1">
          <mxGeometry x="-2790" y="130" width="660" height="640" as="geometry">
            <mxRectangle x="230" y="140" width="160" height="26" as="alternateBounds" />
          </mxGeometry>
        </mxCell>
        <mxCell id="xILVvPnAIR7aX2m-eXU3-108" value="- posizione: SDL_Rect  " style="text;align=left;verticalAlign=top;spacingLeft=4;spacingRight=4;overflow=hidden;rotatable=0;points=[[0,0.5],[1,0.5]];portConstraint=eastwest;" parent="xILVvPnAIR7aX2m-eXU3-107" vertex="1">
          <mxGeometry y="26" width="660" height="26" as="geometry" />
        </mxCell>
        <mxCell id="xILVvPnAIR7aX2m-eXU3-117" value="- larghezza: int  " style="text;align=left;verticalAlign=top;spacingLeft=4;spacingRight=4;overflow=hidden;rotatable=0;points=[[0,0.5],[1,0.5]];portConstraint=eastwest;" parent="xILVvPnAIR7aX2m-eXU3-107" vertex="1">
          <mxGeometry y="52" width="660" height="26" as="geometry" />
        </mxCell>
        <mxCell id="xILVvPnAIR7aX2m-eXU3-118" value="- altezza: int " style="text;align=left;verticalAlign=top;spacingLeft=4;spacingRight=4;overflow=hidden;rotatable=0;points=[[0,0.5],[1,0.5]];portConstraint=eastwest;" parent="xILVvPnAIR7aX2m-eXU3-107" vertex="1">
          <mxGeometry y="78" width="660" height="26" as="geometry" />
        </mxCell>
        <mxCell id="KdYkzJja6feOFmeECK0R-1" value="- orientazioneOrizzontale: bool" style="text;align=left;verticalAlign=top;spacingLeft=4;spacingRight=4;overflow=hidden;rotatable=0;points=[[0,0.5],[1,0.5]];portConstraint=eastwest;" vertex="1" parent="xILVvPnAIR7aX2m-eXU3-107">
          <mxGeometry y="104" width="660" height="26" as="geometry" />
        </mxCell>
        <mxCell id="xILVvPnAIR7aX2m-eXU3-109" value="" style="line;html=1;strokeWidth=1;align=left;verticalAlign=middle;spacingTop=-1;spacingLeft=3;spacingRight=3;rotatable=0;labelPosition=right;points=[];portConstraint=eastwest;" parent="xILVvPnAIR7aX2m-eXU3-107" vertex="1">
          <mxGeometry y="130" width="660" height="8" as="geometry" />
        </mxCell>
        <mxCell id="xILVvPnAIR7aX2m-eXU3-110" value="+ Nave(larghezza: int, altezza: int)" style="text;align=left;verticalAlign=top;spacingLeft=4;spacingRight=4;overflow=hidden;rotatable=0;points=[[0,0.5],[1,0.5]];portConstraint=eastwest;" parent="xILVvPnAIR7aX2m-eXU3-107" vertex="1">
          <mxGeometry y="138" width="660" height="26" as="geometry" />
        </mxCell>
        <mxCell id="xILVvPnAIR7aX2m-eXU3-111" value="+ Nave(other: const Nave&amp;) " style="text;align=left;verticalAlign=top;spacingLeft=4;spacingRight=4;overflow=hidden;rotatable=0;points=[[0,0.5],[1,0.5]];portConstraint=eastwest;" parent="xILVvPnAIR7aX2m-eXU3-107" vertex="1">
          <mxGeometry y="164" width="660" height="26" as="geometry" />
        </mxCell>
        <mxCell id="xILVvPnAIR7aX2m-eXU3-112" value=" + Nave()   " style="text;align=left;verticalAlign=top;spacingLeft=4;spacingRight=4;overflow=hidden;rotatable=0;points=[[0,0.5],[1,0.5]];portConstraint=eastwest;" parent="xILVvPnAIR7aX2m-eXU3-107" vertex="1">
          <mxGeometry y="190" width="660" height="26" as="geometry" />
        </mxCell>
        <mxCell id="xILVvPnAIR7aX2m-eXU3-113" value="+ setPosizione(col: int, riga: int): void" style="text;align=left;verticalAlign=top;spacingLeft=4;spacingRight=4;overflow=hidden;rotatable=0;points=[[0,0.5],[1,0.5]];portConstraint=eastwest;" parent="xILVvPnAIR7aX2m-eXU3-107" vertex="1">
          <mxGeometry y="216" width="660" height="26" as="geometry" />
        </mxCell>
        <mxCell id="xILVvPnAIR7aX2m-eXU3-114" value="+ setDimensione(larghezza: int, altezza: int): void" style="text;align=left;verticalAlign=top;spacingLeft=4;spacingRight=4;overflow=hidden;rotatable=0;points=[[0,0.5],[1,0.5]];portConstraint=eastwest;" parent="xILVvPnAIR7aX2m-eXU3-107" vertex="1">
          <mxGeometry y="242" width="660" height="26" as="geometry" />
        </mxCell>
        <mxCell id="KdYkzJja6feOFmeECK0R-2" value="+ getPosizione(): SDL_Rect " style="text;align=left;verticalAlign=top;spacingLeft=4;spacingRight=4;overflow=hidden;rotatable=0;points=[[0,0.5],[1,0.5]];portConstraint=eastwest;" vertex="1" parent="xILVvPnAIR7aX2m-eXU3-107">
          <mxGeometry y="268" width="660" height="26" as="geometry" />
        </mxCell>
        <mxCell id="KdYkzJja6feOFmeECK0R-3" value="+ getLarghezza(): int  " style="text;align=left;verticalAlign=top;spacingLeft=4;spacingRight=4;overflow=hidden;rotatable=0;points=[[0,0.5],[1,0.5]];portConstraint=eastwest;" vertex="1" parent="xILVvPnAIR7aX2m-eXU3-107">
          <mxGeometry y="294" width="660" height="26" as="geometry" />
        </mxCell>
        <mxCell id="KdYkzJja6feOFmeECK0R-4" value="+ getAltezza(): int  " style="text;align=left;verticalAlign=top;spacingLeft=4;spacingRight=4;overflow=hidden;rotatable=0;points=[[0,0.5],[1,0.5]];portConstraint=eastwest;" vertex="1" parent="xILVvPnAIR7aX2m-eXU3-107">
          <mxGeometry y="320" width="660" height="26" as="geometry" />
        </mxCell>
        <mxCell id="KdYkzJja6feOFmeECK0R-5" value="+ setLarghezza(larghezza: int): void" style="text;align=left;verticalAlign=top;spacingLeft=4;spacingRight=4;overflow=hidden;rotatable=0;points=[[0,0.5],[1,0.5]];portConstraint=eastwest;" vertex="1" parent="xILVvPnAIR7aX2m-eXU3-107">
          <mxGeometry y="346" width="660" height="26" as="geometry" />
        </mxCell>
        <mxCell id="KdYkzJja6feOFmeECK0R-6" value="+ setAltezza(altezza: int): void" style="text;align=left;verticalAlign=top;spacingLeft=4;spacingRight=4;overflow=hidden;rotatable=0;points=[[0,0.5],[1,0.5]];portConstraint=eastwest;" vertex="1" parent="xILVvPnAIR7aX2m-eXU3-107">
          <mxGeometry y="372" width="660" height="26" as="geometry" />
        </mxCell>
        <mxCell id="KdYkzJja6feOFmeECK0R-7" value="+ getX(): int" style="text;align=left;verticalAlign=top;spacingLeft=4;spacingRight=4;overflow=hidden;rotatable=0;points=[[0,0.5],[1,0.5]];portConstraint=eastwest;" vertex="1" parent="xILVvPnAIR7aX2m-eXU3-107">
          <mxGeometry y="398" width="660" height="26" as="geometry" />
        </mxCell>
        <mxCell id="KdYkzJja6feOFmeECK0R-10" value="+ getY(): int  " style="text;align=left;verticalAlign=top;spacingLeft=4;spacingRight=4;overflow=hidden;rotatable=0;points=[[0,0.5],[1,0.5]];portConstraint=eastwest;" vertex="1" parent="xILVvPnAIR7aX2m-eXU3-107">
          <mxGeometry y="424" width="660" height="26" as="geometry" />
        </mxCell>
        <mxCell id="KdYkzJja6feOFmeECK0R-8" value="+ setOrientamento(orizzontale: bool): void" style="text;align=left;verticalAlign=top;spacingLeft=4;spacingRight=4;overflow=hidden;rotatable=0;points=[[0,0.5],[1,0.5]];portConstraint=eastwest;" vertex="1" parent="xILVvPnAIR7aX2m-eXU3-107">
          <mxGeometry y="450" width="660" height="26" as="geometry" />
        </mxCell>
        <mxCell id="KdYkzJja6feOFmeECK0R-11" value="+ getOrientamento(): bool" style="text;align=left;verticalAlign=top;spacingLeft=4;spacingRight=4;overflow=hidden;rotatable=0;points=[[0,0.5],[1,0.5]];portConstraint=eastwest;" vertex="1" parent="xILVvPnAIR7aX2m-eXU3-107">
          <mxGeometry y="476" width="660" height="26" as="geometry" />
        </mxCell>
        <mxCell id="KdYkzJja6feOFmeECK0R-12" value="+ ConvertiInPuntatore(nave: Nave&amp;): Nave*" style="text;align=left;verticalAlign=top;spacingLeft=4;spacingRight=4;overflow=hidden;rotatable=0;points=[[0,0.5],[1,0.5]];portConstraint=eastwest;" vertex="1" parent="xILVvPnAIR7aX2m-eXU3-107">
          <mxGeometry y="502" width="660" height="26" as="geometry" />
        </mxCell>
        <mxCell id="KdYkzJja6feOFmeECK0R-13" value="+ static creaNave(larghezza: int, altezza: int, x: int, y: int, navi: std::vector&lt;Nave&gt;&amp;): Nave" style="text;align=left;verticalAlign=top;spacingLeft=4;spacingRight=4;overflow=hidden;rotatable=0;points=[[0,0.5],[1,0.5]];portConstraint=eastwest;" vertex="1" parent="xILVvPnAIR7aX2m-eXU3-107">
          <mxGeometry y="528" width="660" height="26" as="geometry" />
        </mxCell>
        <mxCell id="KdYkzJja6feOFmeECK0R-14" value="+ static creaNave(i: int): Nave " style="text;align=left;verticalAlign=top;spacingLeft=4;spacingRight=4;overflow=hidden;rotatable=0;points=[[0,0.5],[1,0.5]];portConstraint=eastwest;" vertex="1" parent="xILVvPnAIR7aX2m-eXU3-107">
          <mxGeometry y="554" width="660" height="26" as="geometry" />
        </mxCell>
        <mxCell id="KdYkzJja6feOFmeECK0R-15" value="+ modificaNave(nave: Nave&amp;, navi: std::vector&lt;Nave&gt;&amp;, i: int): void" style="text;align=left;verticalAlign=top;spacingLeft=4;spacingRight=4;overflow=hidden;rotatable=0;points=[[0,0.5],[1,0.5]];portConstraint=eastwest;" vertex="1" parent="xILVvPnAIR7aX2m-eXU3-107">
          <mxGeometry y="580" width="660" height="26" as="geometry" />
        </mxCell>
        <mxCell id="KdYkzJja6feOFmeECK0R-16" value="+ render(renderer: SDL_Renderer*): void" style="text;align=left;verticalAlign=top;spacingLeft=4;spacingRight=4;overflow=hidden;rotatable=0;points=[[0,0.5],[1,0.5]];portConstraint=eastwest;" vertex="1" parent="xILVvPnAIR7aX2m-eXU3-107">
          <mxGeometry y="606" width="660" height="26" as="geometry" />
        </mxCell>
        <mxCell id="KdYkzJja6feOFmeECK0R-23" value="Use" style="endArrow=open;endSize=12;dashed=1;html=1;rounded=0;exitX=0.873;exitY=1.103;exitDx=0;exitDy=0;exitPerimeter=0;entryX=0.368;entryY=-0.011;entryDx=0;entryDy=0;entryPerimeter=0;" edge="1" parent="WIyWlLk6GJQsqaUBKTNV-1" source="xILVvPnAIR7aX2m-eXU3-9" target="xILVvPnAIR7aX2m-eXU3-85">
          <mxGeometry width="160" relative="1" as="geometry">
            <mxPoint x="-3080" y="680" as="sourcePoint" />
            <mxPoint x="-2920" y="680" as="targetPoint" />
          </mxGeometry>
        </mxCell>
        <mxCell id="KdYkzJja6feOFmeECK0R-24" value="Use" style="endArrow=open;endSize=12;dashed=1;html=1;rounded=0;exitX=0.591;exitY=0.006;exitDx=0;exitDy=0;exitPerimeter=0;entryX=0.25;entryY=0;entryDx=0;entryDy=0;" edge="1" parent="WIyWlLk6GJQsqaUBKTNV-1" source="zkfFHV4jXpPFQw0GAbJ--0" target="xILVvPnAIR7aX2m-eXU3-10">
          <mxGeometry width="160" relative="1" as="geometry">
            <mxPoint x="-3050" y="20" as="sourcePoint" />
            <mxPoint x="-1470" y="60" as="targetPoint" />
            <Array as="points">
              <mxPoint x="-2970" y="70" />
              <mxPoint x="-1700" y="60" />
            </Array>
          </mxGeometry>
        </mxCell>
        <mxCell id="KdYkzJja6feOFmeECK0R-25" value="Use" style="endArrow=open;endSize=12;dashed=1;html=1;rounded=0;entryX=0;entryY=0.5;entryDx=0;entryDy=0;" edge="1" parent="WIyWlLk6GJQsqaUBKTNV-1" target="KdYkzJja6feOFmeECK0R-14">
          <mxGeometry width="160" relative="1" as="geometry">
            <mxPoint x="-4250" y="680" as="sourcePoint" />
            <mxPoint x="-4090" y="680" as="targetPoint" />
          </mxGeometry>
        </mxCell>
        <mxCell id="KdYkzJja6feOFmeECK0R-27" value="Use" style="endArrow=open;endSize=12;dashed=1;html=1;rounded=0;exitX=0.617;exitY=-0.008;exitDx=0;exitDy=0;exitPerimeter=0;entryX=0.254;entryY=1.487;entryDx=0;entryDy=0;entryPerimeter=0;" edge="1" parent="WIyWlLk6GJQsqaUBKTNV-1" source="xILVvPnAIR7aX2m-eXU3-85" target="KdYkzJja6feOFmeECK0R-16">
          <mxGeometry width="160" relative="1" as="geometry">
            <mxPoint x="-3750" y="1266" as="sourcePoint" />
            <mxPoint x="-3630" y="1236" as="targetPoint" />
          </mxGeometry>
        </mxCell>
        <mxCell id="KdYkzJja6feOFmeECK0R-29" value="Use" style="endArrow=open;endSize=12;dashed=1;html=1;rounded=0;exitX=0.5;exitY=0;exitDx=0;exitDy=0;entryX=1;entryY=0.5;entryDx=0;entryDy=0;" edge="1" parent="WIyWlLk6GJQsqaUBKTNV-1" source="xILVvPnAIR7aX2m-eXU3-42" target="KdYkzJja6feOFmeECK0R-16">
          <mxGeometry width="160" relative="1" as="geometry">
            <mxPoint x="-1680" y="918" as="sourcePoint" />
            <mxPoint x="-1560" y="888" as="targetPoint" />
          </mxGeometry>
        </mxCell>
        <mxCell id="KdYkzJja6feOFmeECK0R-30" value="Use" style="endArrow=open;endSize=12;dashed=1;html=1;rounded=0;exitX=0.484;exitY=1.582;exitDx=0;exitDy=0;exitPerimeter=0;" edge="1" parent="WIyWlLk6GJQsqaUBKTNV-1" source="xILVvPnAIR7aX2m-eXU3-48" target="xILVvPnAIR7aX2m-eXU3-9">
          <mxGeometry width="160" relative="1" as="geometry">
            <mxPoint x="-1725" y="1560" as="sourcePoint" />
            <mxPoint x="-3430" y="1330" as="targetPoint" />
            <Array as="points">
              <mxPoint x="-2040" y="1360" />
              <mxPoint x="-3360" y="1330" />
            </Array>
          </mxGeometry>
        </mxCell>
        <mxCell id="KdYkzJja6feOFmeECK0R-31" value="Use" style="endArrow=open;endSize=12;dashed=1;html=1;rounded=0;exitX=0.59;exitY=1.399;exitDx=0;exitDy=0;exitPerimeter=0;entryX=0.5;entryY=1;entryDx=0;entryDy=0;" edge="1" parent="WIyWlLk6GJQsqaUBKTNV-1" source="xILVvPnAIR7aX2m-eXU3-48" target="xILVvPnAIR7aX2m-eXU3-61">
          <mxGeometry width="160" relative="1" as="geometry">
            <mxPoint x="-1730" y="1360" as="sourcePoint" />
            <mxPoint x="-4560" y="1540" as="targetPoint" />
            <Array as="points">
              <mxPoint x="-1851" y="1520" />
              <mxPoint x="-4180" y="1540" />
            </Array>
          </mxGeometry>
        </mxCell>
        <mxCell id="KdYkzJja6feOFmeECK0R-32" value="Use" style="endArrow=open;endSize=12;dashed=1;html=1;rounded=0;entryX=0.017;entryY=-0.377;entryDx=0;entryDy=0;entryPerimeter=0;" edge="1" parent="WIyWlLk6GJQsqaUBKTNV-1" target="KdYkzJja6feOFmeECK0R-8">
          <mxGeometry width="160" relative="1" as="geometry">
            <mxPoint x="-4010" y="1000" as="sourcePoint" />
            <mxPoint x="-3820" y="880" as="targetPoint" />
            <Array as="points">
              <mxPoint x="-3630" y="830" />
            </Array>
          </mxGeometry>
        </mxCell>
        <mxCell id="KdYkzJja6feOFmeECK0R-33" value="Use" style="endArrow=open;endSize=12;dashed=1;html=1;rounded=0;entryX=0;entryY=0.5;entryDx=0;entryDy=0;" edge="1" parent="WIyWlLk6GJQsqaUBKTNV-1" target="xILVvPnAIR7aX2m-eXU3-3">
          <mxGeometry width="160" relative="1" as="geometry">
            <mxPoint x="-3680" y="970" as="sourcePoint" />
            <mxPoint x="-3560" y="940" as="targetPoint" />
            <Array as="points">
              <mxPoint x="-3650" y="410" />
            </Array>
          </mxGeometry>
        </mxCell>
        <mxCell id="KdYkzJja6feOFmeECK0R-34" value="Use" style="endArrow=open;endSize=12;dashed=1;html=1;rounded=0;entryX=0;entryY=0.5;entryDx=0;entryDy=0;" edge="1" parent="WIyWlLk6GJQsqaUBKTNV-1" target="xILVvPnAIR7aX2m-eXU3-95">
          <mxGeometry width="160" relative="1" as="geometry">
            <mxPoint x="-3570" y="1010" as="sourcePoint" />
            <mxPoint x="-3450" y="980" as="targetPoint" />
          </mxGeometry>
        </mxCell>
        <mxCell id="KdYkzJja6feOFmeECK0R-35" value="Use" style="endArrow=open;endSize=12;dashed=1;html=1;rounded=0;entryX=0.087;entryY=1.216;entryDx=0;entryDy=0;exitX=0.5;exitY=1;exitDx=0;exitDy=0;entryPerimeter=0;" edge="1" parent="WIyWlLk6GJQsqaUBKTNV-1" source="xILVvPnAIR7aX2m-eXU3-52" target="xILVvPnAIR7aX2m-eXU3-48">
          <mxGeometry width="160" relative="1" as="geometry">
            <mxPoint x="-3630" y="1200" as="sourcePoint" />
            <mxPoint x="-3280" y="1213" as="targetPoint" />
            <Array as="points">
              <mxPoint x="-3670" y="1450" />
            </Array>
          </mxGeometry>
        </mxCell>
        <mxCell id="KdYkzJja6feOFmeECK0R-36" value="Use" style="endArrow=open;endSize=12;dashed=1;html=1;rounded=0;exitX=0.25;exitY=1;exitDx=0;exitDy=0;entryX=0.369;entryY=1.282;entryDx=0;entryDy=0;entryPerimeter=0;" edge="1" parent="WIyWlLk6GJQsqaUBKTNV-1" source="xILVvPnAIR7aX2m-eXU3-52" target="xILVvPnAIR7aX2m-eXU3-69">
          <mxGeometry width="160" relative="1" as="geometry">
            <mxPoint x="-4060" y="1230" as="sourcePoint" />
            <mxPoint x="-4720" y="1290" as="targetPoint" />
            <Array as="points">
              <mxPoint x="-3800" y="1290" />
              <mxPoint x="-4670" y="1290" />
            </Array>
          </mxGeometry>
        </mxCell>
        <mxCell id="KdYkzJja6feOFmeECK0R-37" value="Use" style="endArrow=open;endSize=12;dashed=1;html=1;rounded=0;exitX=0.183;exitY=-0.007;exitDx=0;exitDy=0;entryX=0.902;entryY=0;entryDx=0;entryDy=0;entryPerimeter=0;exitPerimeter=0;" edge="1" parent="WIyWlLk6GJQsqaUBKTNV-1" source="xILVvPnAIR7aX2m-eXU3-10" target="zkfFHV4jXpPFQw0GAbJ--0">
          <mxGeometry width="160" relative="1" as="geometry">
            <mxPoint x="-1780.56" y="470.82000000000005" as="sourcePoint" />
            <mxPoint x="-2080.0000000000005" y="379.9979999999999" as="targetPoint" />
            <Array as="points">
              <mxPoint x="-1900" y="260" />
              <mxPoint x="-2180" y="80" />
              <mxPoint x="-2680" y="90" />
            </Array>
          </mxGeometry>
        </mxCell>
        <mxCell id="KdYkzJja6feOFmeECK0R-38" value="Use" style="endArrow=open;endSize=12;dashed=1;html=1;rounded=0;exitX=0;exitY=0.5;exitDx=0;exitDy=0;entryX=1.016;entryY=-0.147;entryDx=0;entryDy=0;entryPerimeter=0;" edge="1" parent="WIyWlLk6GJQsqaUBKTNV-1">
          <mxGeometry width="160" relative="1" as="geometry">
            <mxPoint x="-1820" y="610.82" as="sourcePoint" />
            <mxPoint x="-2119" y="519.82" as="targetPoint" />
          </mxGeometry>
        </mxCell>
      </root>
    </mxGraphModel>
  </diagram>
</mxfile>
